<svg width="838" height="769" viewBox="0 0 838 769" fill="none" xmlns="http://www.w3.org/2000/svg">
<path d="M314.904 477.18C342.14 475.542 368.464 466.759 391.224 451.715C390.665 471.581 391.365 491.463 393.32 511.24C349.087 552.177 249.226 572.538 205.476 599.13L204.563 598.217C244.62 560.983 281.527 520.499 314.904 477.18ZM519.516 283.886C492.247 285.606 465.909 294.462 443.143 309.565C443.728 289.699 443.028 269.816 441.047 250.041C485.495 208.997 585.839 188.582 629.159 161.828L630.019 162.688C589.903 199.971 552.943 240.509 519.516 283.886ZM412.884 518.117C430.792 497.813 443.076 473.181 448.517 446.666C462.441 460.828 477.271 474.071 492.912 486.313C492.912 547.073 433.791 635.34 421.913 686H420.838C423.74 604.18 417.076 559.483 412.884 518.063M485.817 405.031C506.676 405.246 527.525 404.025 548.217 401.377C590.891 445.054 613.895 546.428 642.165 588.278C641.927 588.488 641.711 588.722 641.52 588.977C582.399 528.754 544.777 503.021 511.132 476.75C508.751 451.12 500.053 426.48 485.817 405.031ZM421.59 242.949C403.68 263.252 391.396 287.884 385.957 314.4C372.02 300.214 357.173 286.952 341.508 274.699C341.508 214.691 399.232 127.875 412.077 77H413.582C410.841 157.584 417.452 201.959 421.59 243.11M279.969 379.405C299.741 396.038 323.411 407.387 348.764 412.391C333.562 426.767 319.324 442.129 306.143 458.377C246.377 455.53 163.124 404.117 114 393.212V391.707C194.62 392.352 238.96 384.562 280.023 379.297M554.505 381.715C534.74 365.06 511.069 353.692 485.71 348.675C500.916 334.284 515.154 318.904 528.331 302.635C589.118 305.59 674.252 358.668 723 368.338V369.305C640.607 368.445 595.944 376.343 554.451 381.715M348.657 355.982C327.814 355.794 306.984 357.033 286.311 359.689C244.604 316.71 221.815 219.15 194.19 175.527L195.264 174.345C253.042 232.957 290.127 258.475 323.396 284.316C325.739 309.929 334.42 334.557 348.657 355.982Z" fill="white"/>
<path d="M605.84 290.595C648.807 289.36 684.093 307.884 708.799 327.213C711.763 329.579 714.579 332.126 717.231 334.838C725.112 323.534 730.024 310.431 731.517 296.733C733.009 283.035 731.033 269.182 725.77 256.447C719.673 241.124 709.018 228.042 695.244 218.968C681.47 209.894 665.243 205.265 648.753 205.707L648.109 204.956L605.84 290.595ZM488.757 175.425C514.447 152.465 546.785 138.285 581.081 134.941C584.089 134.619 587.365 134.35 590.856 134.296C588.1 121.272 582.216 109.114 573.71 98.8709C565.205 88.6279 554.334 80.6079 542.035 75.5031C528.434 69.6602 513.478 67.7009 498.83 69.843C484.182 71.9851 470.414 78.1447 459.056 87.6376L488.757 175.425ZM325.001 192.392C324.625 150.458 342.778 116.363 361.737 92.1478C363.884 89.4626 366.179 86.8993 368.612 84.4698C357.341 76.9848 344.402 72.3844 330.935 71.0736C317.467 69.7628 303.883 71.7818 291.38 76.9528C276.579 82.8691 263.866 93.0418 254.851 106.184C245.835 119.325 240.922 134.846 240.733 150.78L325.001 192.392ZM518.887 578.118C517.788 613.852 504.804 648.2 481.99 675.731C478.25 680.356 474.137 684.666 469.691 688.617C480.726 695.1 493.117 698.93 505.886 699.806C518.655 700.682 531.453 698.58 543.271 693.664C558.767 687.428 571.953 676.551 581.021 662.526C590.089 648.5 594.594 632.013 593.917 615.327L518.887 578.118ZM707.563 423.86L623.027 452.532C652.083 481.687 663.147 518.09 666.853 548.104C667.256 551.885 667.453 555.685 667.443 559.487C679.888 556.337 691.426 550.329 701.141 541.941C710.856 533.552 718.48 523.014 723.407 511.164C729.608 496.659 731.412 480.654 728.596 465.134C725.779 449.614 718.466 435.262 707.563 423.86ZM128.698 346.65L215.49 317.227C183.266 287.481 171.504 249.198 167.69 217.681C167.368 215.211 167.261 212.312 167.153 209.788C154.746 212.948 143.249 218.963 133.579 227.353C123.909 235.743 116.334 246.276 111.458 258.111C105.136 272.929 103.405 289.302 106.488 305.115C109.571 320.927 117.326 335.451 128.752 346.811M350.244 593.689C324.643 616.297 292.561 630.257 258.564 633.583C252.518 634.234 246.428 634.377 240.357 634.012C243.259 646.9 249.219 658.902 257.735 669.003C266.25 679.105 277.071 687.011 289.285 692.054C304.038 698.424 320.359 700.237 336.15 697.262C351.942 694.286 366.483 686.657 377.904 675.355L350.244 593.689ZM225.856 480.505C191.074 478.819 157.76 465.979 130.847 443.887C127.031 440.723 123.442 437.296 120.105 433.632C112.234 444.928 107.315 458.013 105.795 471.695C104.275 485.377 106.204 499.222 111.404 511.969C117.324 526.739 127.486 539.425 140.61 548.426C153.734 557.428 169.231 562.342 185.145 562.547L225.856 480.505Z" fill="white"/>
</svg>
